<?xml version="1.0" encoding="UTF-8" standalone="no"?>
<!-- Created with Inkscape (http://www.inkscape.org/) -->

<svg
   width="96"
   height="96"
   viewBox="0 0 25.399999 25.400001"
   version="1.1"
   id="svg5"
   inkscape:version="1.1.1 (3bf5ae0d25, 2021-09-20)"
   sodipodi:docname="favicon.svg"
   xmlns:inkscape="http://www.inkscape.org/namespaces/inkscape"
   xmlns:sodipodi="http://sodipodi.sourceforge.net/DTD/sodipodi-0.dtd"
   xmlns="http://www.w3.org/2000/svg"
   xmlns:svg="http://www.w3.org/2000/svg">
  <sodipodi:namedview
     id="namedview7"
     pagecolor="#ffffff"
     bordercolor="#999999"
     borderopacity="1"
     inkscape:pageshadow="0"
     inkscape:pageopacity="0"
     inkscape:pagecheckerboard="0"
     inkscape:document-units="px"
     showgrid="false"
     inkscape:snap-smooth-nodes="true"
     inkscape:zoom="4.4788835"
     inkscape:cx="73.455806"
     inkscape:cy="49.900829"
     inkscape:window-width="1600"
     inkscape:window-height="836"
     inkscape:window-x="0"
     inkscape:window-y="27"
     inkscape:window-maximized="1"
     inkscape:current-layer="layer1"
     units="px"
     width="96px" />
  <defs
     id="defs2" />
  <g
     inkscape:label="Layer 1"
     inkscape:groupmode="layer"
     id="layer1">
    <rect
       style="fill:#f7f8f9;stroke-width:0.133689"
       id="rect29"
       width="25.4"
       height="25.4"
       x="1.9073485e-07"
       y="1.9073485e-07"
       ry="1.9624658" />
    <path
       d="m 8.4660547,6.3529519 v 8.4725711 h 4.2413333 q 0.871912,0 1.640377,-0.324733 0.768464,-0.339493 1.344813,-0.915156 0.576349,-0.575663 0.901469,-1.343213 0.339897,-0.782309 0.339897,-1.653184 0,-0.8708741 -0.339897,-1.6384237 Q 16.268927,8.1685028 15.692578,7.5928403 15.116229,7.0171778 14.347765,6.6924452 13.5793,6.3529519 12.707388,6.3529519 Z m 0,16.9303811 H 4.2247206 V 2.1166666 h 8.4826674 q 1.167475,0 2.246282,0.3099721 1.078805,0.2952115 2.00983,0.8561134 0.945804,0.5461413 1.714269,1.3284519 0.783242,0.7675499 1.330034,1.7122268 0.561571,0.9446769 0.857134,2.022199 0.310342,1.0775223 0.310342,2.2436072 0,1.741747 -0.665018,3.291609 -0.665017,1.535099 -1.817715,2.686424 -1.152698,1.151325 -2.704405,1.815551 -1.536928,0.664225 -3.280753,0.664225 H 8.4660547 Z"
       style="font-size:33.3314px;line-height:1.25;font-family:Righteous;-inkscape-font-specification:Righteous;fill:#363545;stroke-width:0.157539"
       id="path26521" />
  </g>
</svg>
