<?xml version="1.0" encoding="UTF-8" standalone="no"?>
<!-- Created with Inkscape (http://www.inkscape.org/) -->

<svg
   width="550"
   height="120"
   viewBox="0 0 145.52083 31.750001"
   version="1.1"
   id="svg5"
   inkscape:version="1.1 (c68e22c387, 2021-05-23)"
   sodipodi:docname="logo-black.svg"
   xmlns:inkscape="http://www.inkscape.org/namespaces/inkscape"
   xmlns:sodipodi="http://sodipodi.sourceforge.net/DTD/sodipodi-0.dtd"
   xmlns="http://www.w3.org/2000/svg"
   xmlns:svg="http://www.w3.org/2000/svg">
  <sodipodi:namedview
     id="namedview7"
     pagecolor="#ffffff"
     bordercolor="#999999"
     borderopacity="1"
     inkscape:pageshadow="0"
     inkscape:pageopacity="0"
     inkscape:pagecheckerboard="0"
     inkscape:document-units="px"
     showgrid="false"
     inkscape:snap-smooth-nodes="true"
     inkscape:zoom="0.37593996"
     inkscape:cx="-502.73985"
     inkscape:cy="426.92987"
     inkscape:window-width="1848"
     inkscape:window-height="1016"
     inkscape:window-x="72"
     inkscape:window-y="27"
     inkscape:window-maximized="1"
     inkscape:current-layer="layer1"
     units="px"
     width="550px" />
  <defs
     id="defs2" />
  <g
     inkscape:label="Layer 1"
     inkscape:groupmode="layer"
     id="layer1">
    <g
       aria-label="Propietta"
       transform="scale(1.0005957,0.99940465)"
       id="text2894-9"
       style="font-size:33.3314px;line-height:1.25;fill:#363545;stroke-width:0.1736">
      <path
         d="m 4.6709148,6.4611756 v 9.3419064 h 4.6709533 q 0.9602309,0 1.8065359,-0.358052 0.846305,-0.374327 1.481034,-1.009056 0.634729,-0.634729 0.992781,-1.481034 0.374327,-0.86258 0.374327,-1.822811 0,-0.960231 -0.374327,-1.8065361 Q 13.264167,8.4630127 12.629438,7.8282839 11.994709,7.193555 11.148404,6.8355028 10.302099,6.4611756 9.3418681,6.4611756 Z m 0,18.6675384 H -3.8491562e-5 V 1.7902223 H 9.3418681 q 1.2857329,0 2.4738149,0.3417771 1.188082,0.3255019 2.213413,0.9439557 1.041607,0.6021786 1.887912,1.4647588 0.86258,0.8463052 1.464759,1.8879115 0.618454,1.0416063 0.943955,2.2296885 0.341778,1.1880822 0.341778,2.4738151 0,1.920461 -0.73238,3.629347 -0.732379,1.69261 -2.001837,2.962068 -1.269458,1.269457 -2.978343,2.001837 -1.69261,0.732379 -3.6130719,0.732379 H 4.6709148 Z"
         style="font-family:Righteous;-inkscape-font-specification:Righteous"
         id="path26521" />
      <path
         d="M 25.37284,25.128714 H 20.929738 V 7.6980831 h 1.074157 l 1.464758,2.0669375 Q 24.54281,8.7885147 25.909918,8.2677115 27.277026,7.7306333 28.741785,7.7306333 h 3.922299 V 12.15746 h -3.922299 q -0.699829,0 -1.318283,0.260402 -0.618453,0.260401 -1.074156,0.716104 -0.455703,0.455703 -0.716104,1.074156 -0.260402,0.618454 -0.260402,1.318283 z"
         style="font-family:Righteous;-inkscape-font-specification:Righteous"
         id="path26523" />
      <path
         d="m 51.250247,16.258785 q 0,1.953012 -0.699829,3.645622 -0.699829,1.676335 -1.904186,2.913243 -1.204358,1.220632 -2.831867,1.936736 -1.611235,0.69983 -3.466596,0.69983 -1.839087,0 -3.466596,-0.69983 -1.611235,-0.716104 -2.831868,-1.936736 -1.204357,-1.236908 -1.904186,-2.913243 -0.699829,-1.69261 -0.699829,-3.645622 0,-1.985562 0.699829,-3.678172 0.699829,-1.692611 1.904186,-2.913243 1.220633,-1.2369075 2.831868,-1.9367367 1.627509,-0.6998293 3.466596,-0.6998293 1.855361,0 3.466596,0.6672791 1.627509,0.6510039 2.831867,1.8716363 1.204357,1.2043576 1.904186,2.9132426 0.699829,1.69261 0.699829,3.775823 z m -4.475652,0 q 0,-1.074157 -0.358052,-1.936737 -0.341777,-0.878855 -0.943956,-1.497309 -0.602178,-0.634729 -1.415933,-0.960231 -0.79748,-0.341777 -1.708885,-0.341777 -0.911406,0 -1.725161,0.341777 -0.79748,0.325502 -1.399658,0.960231 -0.585904,0.618454 -0.927681,1.497309 -0.341777,0.86258 -0.341777,1.936737 0,1.009056 0.341777,1.871636 0.341777,0.86258 0.927681,1.497309 0.602178,0.634729 1.399658,1.009056 0.813755,0.358053 1.725161,0.358053 0.911405,0 1.708885,-0.341777 0.813755,-0.341778 1.415933,-0.960231 0.602179,-0.618454 0.943956,-1.497309 0.358052,-0.878856 0.358052,-1.936737 z"
         style="font-family:Righteous;-inkscape-font-specification:Righteous"
         id="path26525" />
      <path
         d="M 58.183438,31.768954 H 53.707786 V 7.6980831 h 1.074156 l 1.773986,2.0994877 Q 57.158106,9.2279423 57.874211,8.7234143 58.590315,8.2188862 59.355245,7.860834 60.13645,7.4865068 60.96648,7.2749305 q 0.83003,-0.2115763 1.676335,-0.2115763 1.839086,0 3.450321,0.6672791 1.627509,0.6510039 2.831867,1.8553612 1.220632,1.2043575 1.920461,2.9132425 0.69983,1.69261 0.69983,3.759548 0,2.148313 -0.69983,3.873473 -0.699829,1.708886 -1.920461,2.913243 -1.204358,1.188082 -2.831867,1.822811 -1.611235,0.634729 -3.450321,0.634729 -0.585904,0 -1.171807,-0.130201 -0.569629,-0.130201 -1.139257,-0.341777 -0.553354,-0.227851 -1.106707,-0.504528 -0.537078,-0.276677 -1.041606,-0.569628 z m 8.902479,-15.510169 q 0,-1.106707 -0.358053,-1.985562 -0.341777,-0.878855 -0.943955,-1.481034 -0.602179,-0.618454 -1.415934,-0.943956 -0.813755,-0.325502 -1.72516,-0.325502 -0.911406,0 -1.725161,0.325502 -0.79748,0.325502 -1.399658,0.943956 -0.602179,0.602179 -0.960231,1.481034 -0.341777,0.878855 -0.341777,1.985562 0,1.057881 0.341777,1.936737 0.358052,0.878855 0.960231,1.497309 0.602178,0.618453 1.399658,0.960231 0.813755,0.341777 1.725161,0.341777 0.911405,0 1.72516,-0.341777 0.813755,-0.341778 1.415934,-0.960231 0.602178,-0.618454 0.943955,-1.497309 0.358053,-0.878856 0.358053,-1.936737 z"
         style="font-family:Righteous;-inkscape-font-specification:Righteous"
         id="path26527" />
      <path
         d="m 79.243419,2.9620294 q 0,0.6184537 -0.244127,1.155532 -0.227851,0.5370782 -0.634728,0.9439557 -0.406878,0.3906024 -0.960231,0.6347288 -0.537078,0.2278514 -1.155532,0.2278514 -0.618454,0 -1.171807,-0.2278514 Q 74.539915,5.4521195 74.133038,5.0615171 73.742436,4.6546396 73.498309,4.1175614 73.270458,3.5804831 73.270458,2.9620294 q 0,-0.6021787 0.227851,-1.1392569 0.244127,-0.5533534 0.634729,-0.94395573 0.406877,-0.40687746 0.943956,-0.63472884 0.553353,-0.244126479304 1.171807,-0.244126479304 0.618454,0 1.155532,0.244126479304 0.553353,0.22785138 0.960231,0.63472884 0.406877,0.39060233 0.634728,0.94395573 0.244127,0.5370782 0.244127,1.1392569 z M 78.478489,25.128714 H 74.002837 V 7.6980831 h 4.475652 z"
         style="font-family:Righteous;-inkscape-font-specification:Righteous"
         id="path26529" />
      <path
         d="m 88.7969,20.864638 q 0.260401,0.08138 0.520803,0.113925 0.260401,0.01628 0.520803,0.01628 0.651004,0 1.253182,-0.179027 0.602179,-0.179026 1.122982,-0.504528 0.537078,-0.341777 0.943956,-0.813754 0.423152,-0.488253 0.683554,-1.074157 l 3.25502,3.271295 q -0.618454,0.878855 -1.432209,1.578684 -0.79748,0.69983 -1.741435,1.188083 -0.927681,0.488253 -1.969287,0.732379 -1.025332,0.260402 -2.115763,0.260402 -1.839086,0 -3.466596,-0.683555 -1.611235,-0.683554 -2.831867,-1.904186 -1.204358,-1.220632 -1.904187,-2.896968 -0.699829,-1.69261 -0.699829,-3.710722 0,-2.066938 0.699829,-3.775823 0.699829,-1.708885 1.904187,-2.9132426 1.220632,-1.2043573 2.831867,-1.8716363 1.62751,-0.6672791 3.466596,-0.6672791 1.090431,0 2.132038,0.2604016 1.041606,0.2604016 1.969287,0.7486545 0.943955,0.488253 1.75771,1.2043573 0.813755,0.6998293 1.432209,1.5786846 z m 2.278513,-9.162881 q -0.309227,-0.113925 -0.618453,-0.146476 -0.292952,-0.03255 -0.618454,-0.03255 -0.911406,0 -1.725161,0.341777 -0.797479,0.325502 -1.399658,0.943956 -0.585904,0.618454 -0.927681,1.497309 -0.341777,0.86258 -0.341777,1.953012 0,0.244126 0.01627,0.553353 0.03255,0.309227 0.08138,0.634729 0.0651,0.309227 0.146476,0.602179 0.08137,0.292952 0.211576,0.520803 z"
         style="font-family:Righteous;-inkscape-font-specification:Righteous"
         id="path26531" />
      <path
         d="m 108.09917,25.128714 q -1.61123,0 -3.02717,-0.602179 -1.41593,-0.618454 -2.49009,-1.676335 -1.05788,-1.074157 -1.67633,-2.49009 -0.60218,-1.415934 -0.60218,-3.027169 V 12.15746 H 98.13881 V 7.7306333 h 2.16459 V 0.76489108 h 4.42683 V 7.7306333 h 6.73789 V 12.15746 h -6.73789 v 5.175481 q 0,0.69983 0.2604,1.318283 0.2604,0.602179 0.7161,1.057882 0.4557,0.455703 1.07416,0.732379 0.61845,0.260402 1.31828,0.260402 h 3.36895 v 4.426827 z"
         style="font-family:Righteous;-inkscape-font-specification:Righteous"
         id="path26533" />
      <path
         d="m 122.69793,25.128714 q -1.61123,0 -3.02717,-0.602179 -1.41593,-0.618454 -2.49009,-1.676335 -1.05788,-1.074157 -1.67633,-2.49009 -0.60218,-1.415934 -0.60218,-3.027169 V 12.15746 h -2.16459 V 7.7306333 h 2.16459 V 0.76489108 h 4.42683 V 7.7306333 h 6.73789 V 12.15746 h -6.73789 v 5.175481 q 0,0.69983 0.2604,1.318283 0.2604,0.602179 0.7161,1.057882 0.45571,0.455703 1.07416,0.732379 0.61845,0.260402 1.31828,0.260402 h 3.36895 v 4.426827 z"
         style="font-family:Righteous;-inkscape-font-specification:Righteous"
         id="path26535" />
      <path
         d="m 145.43424,25.128714 h -1.07416 l -1.72516,-2.39244 q -0.63473,0.569629 -1.35083,1.074157 -0.69983,0.488253 -1.48104,0.86258 -0.7812,0.358052 -1.61123,0.569628 -0.81376,0.211577 -1.66006,0.211577 -1.83909,0 -3.4666,-0.618454 -1.61123,-0.618454 -2.83186,-1.790261 -1.20436,-1.188082 -1.90419,-2.896968 -0.69983,-1.708885 -0.69983,-3.889748 0,-2.034387 0.69983,-3.726998 0.69983,-1.708885 1.90419,-2.9295174 1.22063,-1.2206324 2.83186,-1.8879114 1.62751,-0.6835542 3.4666,-0.6835542 0.8463,0 1.67633,0.2115763 0.83003,0.2115763 1.61124,0.5859036 0.7812,0.3743272 1.48103,0.8788553 0.71611,0.504528 1.33456,1.0904316 l 1.72516,-2.0669375 h 1.07416 z m -4.47565,-8.869929 q 0,-0.911406 -0.35806,-1.757711 -0.34177,-0.86258 -0.94395,-1.513584 -0.60218,-0.667279 -1.41594,-1.057881 -0.79748,-0.406878 -1.70888,-0.406878 -0.91141,0 -1.72516,0.309227 -0.79748,0.309227 -1.39966,0.911406 -0.5859,0.602178 -0.92768,1.497309 -0.34178,0.878855 -0.34178,2.018112 0,1.139257 0.34178,2.034387 0.34178,0.878856 0.92768,1.481034 0.60218,0.602179 1.39966,0.911406 0.81375,0.309227 1.72516,0.309227 0.9114,0 1.70888,-0.390603 0.81376,-0.406877 1.41594,-1.057881 0.60218,-0.667279 0.94395,-1.513584 0.35806,-0.862581 0.35806,-1.773986 z"
         style="font-family:Righteous;-inkscape-font-specification:Righteous"
         id="path26537" />
    </g>
  </g>
</svg>
