<?xml version="1.0" encoding="UTF-8" standalone="no"?>
<!-- Created with Inkscape (http://www.inkscape.org/) -->

<svg
   width="550"
   height="120"
   viewBox="0 0 145.52083 31.750001"
   version="1.1"
   id="svg5"
   inkscape:version="1.1 (c68e22c387, 2021-05-23)"
   sodipodi:docname="logo-white.svg"
   xmlns:inkscape="http://www.inkscape.org/namespaces/inkscape"
   xmlns:sodipodi="http://sodipodi.sourceforge.net/DTD/sodipodi-0.dtd"
   xmlns="http://www.w3.org/2000/svg"
   xmlns:svg="http://www.w3.org/2000/svg">
  <sodipodi:namedview
     id="namedview7"
     pagecolor="#ffffff"
     bordercolor="#999999"
     borderopacity="1"
     inkscape:pageshadow="0"
     inkscape:pageopacity="0"
     inkscape:pagecheckerboard="0"
     inkscape:document-units="px"
     showgrid="false"
     inkscape:snap-smooth-nodes="true"
     inkscape:zoom="0.37593996"
     inkscape:cx="-502.73985"
     inkscape:cy="426.92987"
     inkscape:window-width="1848"
     inkscape:window-height="1016"
     inkscape:window-x="72"
     inkscape:window-y="27"
     inkscape:window-maximized="1"
     inkscape:current-layer="layer1"
     units="px"
     width="550px" />
  <defs
     id="defs2" />
  <g
     inkscape:label="Layer 1"
     inkscape:groupmode="layer"
     id="layer1">
    <g
       aria-label="Propietta"
       transform="matrix(1.0005957,0,0,0.99940464,22.76733,-128.77576)"
       id="text2894-9-6"
       style="font-size:33.3314px;line-height:1.25;fill:#f8f9fa;stroke-width:0.1736">
      <path
         d="m -18.082858,135.31365 v 9.3419 h 4.670953 q 0.960231,0 1.806536,-0.35805 0.846305,-0.37432 1.481034,-1.00905 0.6347286,-0.63473 0.9927808,-1.48104 0.3743272,-0.86258 0.3743272,-1.82281 0,-0.96023 -0.3743272,-1.80653 -0.3580522,-0.86258 -0.9927808,-1.49731 -0.634729,-0.63473 -1.481034,-0.99278 -0.846305,-0.37433 -1.806536,-0.37433 z m 0,18.66754 h -4.670954 v -23.3385 h 9.341907 q 1.285733,0 2.473815,0.34178 1.188082,0.3255 2.2134132,0.94396 1.0416064,0.60218 1.8879115,1.46476 0.8625802,0.8463 1.4647588,1.88791 0.6184538,1.0416 0.9439558,2.22969 0.341777,1.18808 0.341777,2.47381 0,1.92046 -0.7323794,3.62935 -0.7323794,1.69261 -2.0018371,2.96207 -1.2694577,1.26945 -2.9783431,2.00183 -1.6926107,0.73238 -3.6130717,0.73238 h -4.670953 z"
         style="font-family:Righteous;-inkscape-font-specification:Righteous"
         id="path26558" />
      <path
         d="m 2.6190667,153.98119 h -4.4431019 v -17.43063 h 1.07415652 l 1.46475887,2.06693 q 1.07415651,-0.9765 2.44126481,-1.49731 1.3671083,-0.53707 2.8318671,-0.53707 h 3.9222988 v 4.42682 H 5.9880121 q -0.6998292,0 -1.318283,0.2604 -0.6184537,0.26041 -1.0741565,0.71611 -0.4557027,0.4557 -0.7161043,1.07415 -0.2604016,0.61846 -0.2604016,1.31829 z"
         style="font-family:Righteous;-inkscape-font-specification:Righteous"
         id="path26560" />
      <path
         d="m 28.496474,145.11126 q 0,1.95301 -0.699829,3.64562 -0.699829,1.67633 -1.904187,2.91324 -1.204357,1.22063 -2.831867,1.93674 -1.611234,0.69983 -3.466596,0.69983 -1.839086,0 -3.466596,-0.69983 -1.611234,-0.71611 -2.831867,-1.93674 -1.204357,-1.23691 -1.904186,-2.91324 -0.69983,-1.69261 -0.69983,-3.64562 0,-1.98556 0.69983,-3.67818 0.699829,-1.69261 1.904186,-2.91324 1.220633,-1.23691 2.831867,-1.93673 1.62751,-0.69983 3.466596,-0.69983 1.855362,0 3.466596,0.66728 1.62751,0.651 2.831867,1.87163 1.204358,1.20436 1.904187,2.91324 0.699829,1.69261 0.699829,3.77583 z m -4.475652,0 q 0,-1.07416 -0.358052,-1.93674 -0.341777,-0.87885 -0.943956,-1.49731 -0.602178,-0.63473 -1.415933,-0.96023 -0.79748,-0.34178 -1.708886,-0.34178 -0.911405,0 -1.72516,0.34178 -0.79748,0.3255 -1.399659,0.96023 -0.585903,0.61846 -0.92768,1.49731 -0.341777,0.86258 -0.341777,1.93674 0,1.00905 0.341777,1.87163 0.341777,0.86258 0.92768,1.49731 0.602179,0.63473 1.399659,1.00906 0.813755,0.35805 1.72516,0.35805 0.911406,0 1.708886,-0.34178 0.813755,-0.34177 1.415933,-0.96023 0.602179,-0.61845 0.943956,-1.49731 0.358052,-0.87885 0.358052,-1.93673 z"
         style="font-family:Righteous;-inkscape-font-specification:Righteous"
         id="path26562" />
      <path
         d="m 35.429664,160.62143 h -4.475652 v -24.07087 h 1.074157 l 1.773986,2.09948 q 0.602178,-0.56963 1.318283,-1.07415 0.716104,-0.50453 1.481034,-0.86258 0.781204,-0.37433 1.611234,-0.58591 0.83003,-0.21157 1.676335,-0.21157 1.839087,0 3.450321,0.66728 1.62751,0.651 2.831868,1.85536 1.220632,1.20435 1.920461,2.91324 0.699829,1.69261 0.699829,3.75955 0,2.14831 -0.699829,3.87347 -0.699829,1.70889 -1.920461,2.91324 -1.204358,1.18809 -2.831868,1.82281 -1.611234,0.63473 -3.450321,0.63473 -0.585903,0 -1.171807,-0.1302 -0.569628,-0.1302 -1.139257,-0.34177 -0.553353,-0.22786 -1.106706,-0.50453 -0.537078,-0.27668 -1.041607,-0.56963 z m 8.902479,-15.51017 q 0,-1.10671 -0.358052,-1.98556 -0.341777,-0.87886 -0.943955,-1.48104 -0.602179,-0.61845 -1.415934,-0.94395 -0.813755,-0.32551 -1.725161,-0.32551 -0.911405,0 -1.72516,0.32551 -0.79748,0.3255 -1.399658,0.94395 -0.602179,0.60218 -0.960231,1.48104 -0.341777,0.87885 -0.341777,1.98556 0,1.05788 0.341777,1.93673 0.358052,0.87886 0.960231,1.49731 0.602178,0.61846 1.399658,0.96023 0.813755,0.34178 1.72516,0.34178 0.911406,0 1.725161,-0.34178 0.813755,-0.34177 1.415934,-0.96023 0.602178,-0.61845 0.943955,-1.49731 0.358052,-0.87885 0.358052,-1.93673 z"
         style="font-family:Righteous;-inkscape-font-specification:Righteous"
         id="path26564" />
      <path
         d="m 56.489646,131.8145 q 0,0.61846 -0.244127,1.15553 -0.227851,0.53708 -0.634729,0.94396 -0.406877,0.3906 -0.96023,0.63473 -0.537079,0.22785 -1.155532,0.22785 -0.618454,0 -1.171808,-0.22785 -0.537078,-0.24413 -0.943955,-0.63473 -0.390603,-0.40688 -0.634729,-0.94396 -0.227851,-0.53707 -0.227851,-1.15553 0,-0.60218 0.227851,-1.13926 0.244126,-0.55335 0.634729,-0.94395 0.406877,-0.40688 0.943955,-0.63473 0.553354,-0.24413 1.171808,-0.24413 0.618453,0 1.155532,0.24413 0.553353,0.22785 0.96023,0.63473 0.406878,0.3906 0.634729,0.94395 0.244127,0.53708 0.244127,1.13926 z m -0.76493,22.16669 h -4.475652 v -17.43063 h 4.475652 z"
         style="font-family:Righteous;-inkscape-font-specification:Righteous"
         id="path26566" />
      <path
         d="m 66.043126,149.71711 q 0.260402,0.0814 0.520803,0.11393 0.260402,0.0163 0.520804,0.0163 0.651004,0 1.253182,-0.17903 0.602179,-0.17902 1.122982,-0.50452 0.537078,-0.34178 0.943956,-0.81376 0.423152,-0.48825 0.683554,-1.07415 l 3.25502,3.27129 q -0.618454,0.87886 -1.432209,1.57868 -0.79748,0.69983 -1.741436,1.18809 -0.92768,0.48825 -1.969287,0.73238 -1.025331,0.2604 -2.115762,0.2604 -1.839087,0 -3.466596,-0.68356 -1.611235,-0.68355 -2.831868,-1.90418 -1.204357,-1.22064 -1.904186,-2.89697 -0.699829,-1.69261 -0.699829,-3.71072 0,-2.06694 0.699829,-3.77583 0.699829,-1.70888 1.904186,-2.91324 1.220633,-1.20436 2.831868,-1.87163 1.627509,-0.66728 3.466596,-0.66728 1.090431,0 2.132038,0.2604 1.041606,0.2604 1.969286,0.74865 0.943956,0.48826 1.757711,1.20436 0.813755,0.69983 1.432209,1.57868 z m 2.278514,-9.16288 q -0.309227,-0.11393 -0.618454,-0.14648 -0.292951,-0.0325 -0.618453,-0.0325 -0.911406,0 -1.725161,0.34178 -0.79748,0.3255 -1.399658,0.94396 -0.585904,0.61845 -0.927681,1.49731 -0.341777,0.86258 -0.341777,1.95301 0,0.24412 0.01628,0.55335 0.03255,0.30923 0.08138,0.63473 0.0651,0.30923 0.146475,0.60218 0.08138,0.29295 0.211577,0.5208 z"
         style="font-family:Righteous;-inkscape-font-specification:Righteous"
         id="path26568" />
      <path
         d="m 85.345397,153.98119 q -1.611234,0 -3.027168,-0.60218 -1.415933,-0.61846 -2.49009,-1.67634 -1.057881,-1.07415 -1.676335,-2.49009 -0.602179,-1.41593 -0.602179,-3.02717 v -5.17548 h -2.164588 v -4.42682 h 2.164588 v -6.96575 h 4.426827 v 6.96575 h 6.737891 v 4.42682 h -6.737891 v 5.17548 q 0,0.69983 0.260402,1.31829 0.260401,0.60218 0.716104,1.05788 0.455703,0.4557 1.074156,0.73238 0.618454,0.2604 1.318283,0.2604 h 3.368946 v 4.42683 z"
         style="font-family:Righteous;-inkscape-font-specification:Righteous"
         id="path26570" />
      <path
         d="m 99.94416,153.98119 q -1.611235,0 -3.027168,-0.60218 -1.415934,-0.61846 -2.49009,-1.67634 -1.057882,-1.07415 -1.676336,-2.49009 -0.602178,-1.41593 -0.602178,-3.02717 v -5.17548 H 89.9838 v -4.42682 h 2.164588 v -6.96575 h 4.426827 v 6.96575 h 6.737895 v 4.42682 h -6.737895 v 5.17548 q 0,0.69983 0.260401,1.31829 0.260402,0.60218 0.716104,1.05788 0.455703,0.4557 1.074157,0.73238 0.618454,0.2604 1.318283,0.2604 h 3.36895 v 4.42683 z"
         style="font-family:Righteous;-inkscape-font-specification:Righteous"
         id="path26572" />
      <path
         d="m 122.68046,153.98119 h -1.07415 l -1.72516,-2.39244 q -0.63473,0.56962 -1.35084,1.07415 -0.69983,0.48826 -1.48103,0.86258 -0.7812,0.35806 -1.61123,0.56963 -0.81376,0.21158 -1.66006,0.21158 -1.83909,0 -3.4666,-0.61846 -1.61124,-0.61845 -2.83187,-1.79026 -1.20436,-1.18808 -1.90418,-2.89696 -0.69983,-1.70889 -0.69983,-3.88975 0,-2.03439 0.69983,-3.727 0.69982,-1.70889 1.90418,-2.92952 1.22063,-1.22063 2.83187,-1.88791 1.62751,-0.68355 3.4666,-0.68355 0.8463,0 1.67633,0.21157 0.83003,0.21158 1.61124,0.58591 0.7812,0.37432 1.48103,0.87885 0.7161,0.50453 1.33456,1.09043 l 1.72516,-2.06693 h 1.07415 z m -4.47565,-8.86993 q 0,-0.91141 -0.35805,-1.75771 -0.34178,-0.86258 -0.94396,-1.51359 -0.60217,-0.66728 -1.41593,-1.05788 -0.79748,-0.40688 -1.70888,-0.40688 -0.91141,0 -1.72517,0.30923 -0.79748,0.30923 -1.39965,0.91141 -0.58591,0.60217 -0.92768,1.4973 -0.34178,0.87886 -0.34178,2.01812 0,1.13925 0.34178,2.03438 0.34177,0.87886 0.92768,1.48104 0.60217,0.60218 1.39965,0.9114 0.81376,0.30923 1.72517,0.30923 0.9114,0 1.70888,-0.3906 0.81376,-0.40688 1.41593,-1.05788 0.60218,-0.66728 0.94396,-1.51359 0.35805,-0.86258 0.35805,-1.77398 z"
         style="font-family:Righteous;-inkscape-font-specification:Righteous"
         id="path26574" />
    </g>
  </g>
</svg>
